<svg width="440" height="144" viewBox="0 0 440 144" fill="none" xmlns="http://www.w3.org/2000/svg">
<path d="M57.6192 45.0387C56.4383 43.0426 54.2351 41.7339 51.6089 41.7339C48.4583 41.7339 45.581 43.6286 44.1973 46.3033C43.7201 47.2077 43.4266 48.1976 43.3336 49.2159L42.5228 58.3944C42.5228 58.3944 45.6557 58.4605 47.0614 58.4605C58.5354 58.4605 58.5534 49.2159 58.5534 49.2159C58.714 47.7584 58.3853 46.289 57.6192 45.0387ZM75.0822 64.4357C74.1213 63.9747 73.0678 63.7396 72.0021 63.7483H27.2991C25.7542 63.7347 24.2397 64.1777 22.9456 65.0217C21.8604 65.686 20.9427 66.5911 20.2634 67.667C19.5841 68.7428 19.1615 69.9605 19.0283 71.2259C18.7595 74.3412 20.4295 77.0027 23.0601 78.1351C23.9326 78.5096 24.9064 78.7299 25.9683 78.7299H40.7253L39.4342 93.2399C39.3461 94.293 39.4518 95.258 39.7647 96.1657C40.6856 98.8536 43.2193 100.744 46.3655 100.744C49.4368 100.744 52.2392 98.9197 53.6669 96.3375C54.1956 95.3946 54.5437 94.3722 54.6363 93.2398L55.9274 78.7299H70.6804C71.7467 78.7299 72.7426 78.5095 73.69 78.1438C76.5145 77.0025 78.6692 74.3411 78.9512 71.2258C79.0938 69.8326 78.7977 68.4297 78.104 67.213C77.4104 65.9964 76.354 65.0269 75.0824 64.44M138.08 69.6447C144.298 66.0271 147.81 59.9815 148.558 51.6267C149.197 44.3121 146.985 38.6277 141.949 34.7327C137.027 30.9256 130.911 29 123.773 29H100.234C100.181 29 100.128 29.009 100.08 29.0132C98.4889 29.0302 96.9349 29.4927 95.5939 30.3483C94.7774 30.8602 94.0471 31.4982 93.4304 32.2386C92.2501 33.5443 91.5237 35.1966 91.3594 36.949L85.0803 107.636C84.9084 109.557 85.4284 111.236 86.552 112.673C87.0058 113.272 87.517 113.809 88.1383 114.246C89.3412 115.1 90.7689 115.541 92.3817 115.576C92.439 115.576 92.4786 115.598 92.5447 115.598H120.521C128.47 115.598 135.547 113.593 141.553 109.628C147.717 105.569 151.189 99.5416 151.886 91.7376C152.414 85.8771 151.269 80.8626 148.493 76.8706C146.188 73.5394 142.69 71.0982 138.076 69.6441L138.08 69.6447ZM106.055 42.7917H120.217C123.928 42.7917 126.942 43.7435 129.145 45.6118C131.304 47.4316 132.216 49.9697 131.921 53.3626C131.551 57.3724 130.176 60.285 127.814 62.0344C125.316 63.8895 122.429 64.7884 119.001 64.7884H104.099L106.055 42.7917ZM130.54 98.9157C127.482 100.832 123.569 101.789 118.916 101.789H100.819L102.771 79.7217H121.498C126.491 79.7217 130.289 80.0434 132.514 82.0042C134.85 84.0664 135.74 86.5736 135.44 90.0106C135.066 94.1923 133.462 97.1179 130.54 98.9157ZM186.5 55.4517C180.803 55.4601 175.156 56.5208 169.844 58.5802C164.803 60.5675 162.12 63.0835 161.856 66.0534C161.71 67.697 162.151 69.0806 163.16 70.169C164.169 71.253 165.526 71.8082 167.187 71.8082C167.936 71.8082 169.457 71.6011 173.92 69.7636C177.485 68.3051 180.9 67.5604 184.072 67.5604C187.399 67.5604 189.699 68.4505 191.092 70.2527C192.308 71.8743 192.775 74.3815 192.48 77.6995L192.453 78.0079C181.829 78.9113 174.219 80.2993 169.223 82.2425C161.226 85.3314 156.85 90.5044 156.224 97.5944C155.726 103.147 157.405 107.584 161.203 110.769C164.914 113.898 169.65 115.484 175.259 115.484C181.076 115.484 186.244 114.475 190.655 112.488C191.845 114.44 193.907 115.484 196.692 115.484C198.741 115.484 200.601 114.762 202.209 113.356C203.764 112.047 204.736 110.173 204.91 108.148L207.611 77.6996C208.206 71.0283 206.99 65.7716 203.998 62.0566C200.367 57.6678 194.481 55.4517 186.5 55.4517ZM190.39 101.233C187.033 102.969 183.622 103.846 180.233 103.846C177.365 103.846 174.968 103.243 173.126 102.04C171.434 100.938 170.694 99.4003 170.879 97.3425C171.385 91.7023 182.049 89.7328 191.461 89.1026L190.39 101.229M243.881 55.4515C239.6 55.456 235.348 56.1631 231.296 57.5445L233.182 36.4556C233.283 35.4041 233.132 34.3436 232.741 33.3623C231.772 30.7934 229.326 29.0132 226.272 29.0132C223.659 29.0132 221.24 30.3042 219.707 32.2915C218.742 33.5077 218.182 34.8914 218.05 36.4556L211.855 106.077C211.458 110.637 213.551 113.554 217.949 114.493C221.408 115.145 226.065 115.48 231.767 115.48C244.092 115.48 253.755 112.025 260.492 105.226C265.568 100.158 268.511 93.5048 269.221 85.4588C270.018 76.4389 268.106 69.1418 263.554 63.7438C258.883 58.2358 252.265 55.451 243.879 55.451M249.311 96.673C245.658 100.683 240.657 102.648 234.012 102.648C231.28 102.648 229.033 102.551 227.31 102.397L230.139 70.6049C233.291 69.2365 236.691 68.5301 240.128 68.5295C244.481 68.5295 247.888 69.9484 250.509 72.8742C253.184 75.9895 254.307 80.2373 253.849 85.4592C253.439 90.0066 251.915 93.7783 249.311 96.673ZM305.751 55.4522C301.499 55.4522 297.265 56.1572 293.184 57.5452L295.053 36.4562C295.149 35.4194 295.01 34.3742 294.647 33.3982C293.687 30.8205 291.228 29.0138 288.148 29.0138C285.53 29.0138 283.107 30.3137 281.582 32.3098C280.624 33.4937 280.044 34.9384 279.917 36.4562L273.743 106.077C273.325 110.638 275.431 113.555 279.824 114.493C283.283 115.146 287.932 115.48 293.656 115.48C305.959 115.48 315.626 112.026 322.372 105.226C327.457 100.159 330.392 93.5055 331.106 85.4595C331.903 76.4396 330.004 69.1425 325.421 63.7445C320.759 58.2365 314.127 55.4522 305.751 55.4522ZM311.191 96.6737C307.534 100.683 302.528 102.649 295.888 102.649C293.152 102.649 290.909 102.552 289.191 102.398L292.015 70.6056C295.167 69.2355 298.568 68.529 302.004 68.5302C306.367 68.5302 309.76 69.9491 312.372 72.8749C315.06 75.9902 316.184 80.238 315.721 85.4599C315.316 90.0073 313.787 93.779 311.191 96.6737ZM367.711 55.4529C358.766 55.4529 351.284 58.2333 345.472 63.7325C339.594 69.2846 336.237 76.3615 335.496 84.7425C334.703 93.6875 336.774 101.047 341.661 106.594C346.684 112.485 354.206 115.481 363.975 115.481C370.285 115.481 376.234 114.34 381.68 112.088C386.197 110.172 388.616 107.717 388.88 104.752C388.971 103.967 388.904 103.173 388.684 102.415C388.463 101.657 388.094 100.95 387.598 100.337C386.249 98.6621 384.416 97.9879 381.799 98.6048C381.169 98.759 380.609 98.9882 380.138 99.2481C379.663 99.5195 379.171 99.7609 378.666 99.9708C377.939 100.297 377.313 100.597 376.824 100.804C373.259 102.346 369.598 103.13 365.94 103.13C360.608 103.13 356.731 101.469 354.043 98.0937C352.325 95.9346 351.32 93.2731 351.064 90.1269H384.826C387.175 90.1269 389.153 89.3338 390.687 87.7563C392.181 86.2273 393.04 84.2797 393.247 81.9531C393.908 74.5327 392.066 68.2891 387.757 63.3491C382.892 58.1143 376.15 55.4529 367.711 55.4529ZM352.002 79.1058C352.662 76.2681 353.958 73.8446 355.87 71.8793C358.58 69.2222 362.136 67.9224 366.727 67.9224C370.825 67.9224 373.879 69.143 376.025 71.6238C377.69 73.708 378.519 76.1536 378.541 79.1059L352.002 79.1058ZM418.962 36.4559C419.119 35.0059 418.795 33.5444 418.041 32.2963C416.86 30.3134 414.674 29.0135 412.057 29.0135C408.924 29.0135 406.069 30.895 404.681 33.5565C404.206 34.4565 403.915 35.4422 403.826 36.4559L397.459 108.148C397.365 109.127 397.478 110.114 397.789 111.047C398.701 113.722 401.231 115.599 404.363 115.599C407.421 115.599 410.202 113.793 411.634 111.224C412.154 110.285 412.493 109.276 412.59 108.148L418.962 36.4559Z" fill="#1E1E1E"/>
</svg>
